{
	"asset":{
		"generator":"Khronos glTF Blender I/O v4.0.44",
		"version":"2.0"
	},
	"extensionsUsed":[
		"KHR_materials_emissive_strength"
	],
	"scene":0,
	"scenes":[
		{
			"name":"Scene",
			"nodes":[
				0
			]
		}
	],
	"nodes":[
		{
			"mesh":0,
			"name":"microwave"
		}
	],
	"materials":[
		{
			"alphaMode":"BLEND",
			"doubleSided":true,
			"emissiveFactor":[
				1,
				1,
				1
			],
			"emissiveTexture":{
				"index":0
			},
			"extensions":{
				"KHR_materials_emissive_strength":{
					"emissiveStrength":1.3999998569488525
				}
			},
			"name":"microwave",
			"pbrMetallicRoughness":{
				"baseColorTexture":{
					"index":1
				},
				"metallicFactor":0.07873992621898651,
				"roughnessFactor":0.350393682718277
			}
		}
	],
	"meshes":[
		{
			"name":"microwave",
			"primitives":[
				{
					"attributes":{
						"POSITION":0,
						"NORMAL":1,
						"TEXCOORD_0":2
					},
					"indices":3,
					"material":0
				},
				{
					"attributes":{
						"POSITION":4,
						"NORMAL":5,
						"TEXCOORD_0":6
					},
					"indices":7,
					"material":0
				},
				{
					"attributes":{
						"POSITION":8,
						"NORMAL":9,
						"TEXCOORD_0":10
					},
					"indices":11,
					"material":0
				}
			]
		}
	],
	"textures":[
		{
			"sampler":0,
			"source":0
		},
		{
			"sampler":0,
			"source":1
		}
	],
	"images":[
		{
			"mimeType":"image/png",
			"name":"microwave_emissive",
			"uri":"tex/microwave_emissive.png"
		},
		{
			"mimeType":"image/png",
			"name":"microwave",
			"uri":"tex/microwave.png"
		}
	],
	"accessors":[
		{
			"bufferView":0,
			"componentType":5126,
			"count":122,
			"max":[
				0.5,
				0.75,
				0.42625004053115845
			],
			"min":[
				-0.5,
				0,
				-0.3499999940395355
			],
			"type":"VEC3"
		},
		{
			"bufferView":1,
			"componentType":5126,
			"count":122,
			"type":"VEC3"
		},
		{
			"bufferView":2,
			"componentType":5126,
			"count":122,
			"type":"VEC2"
		},
		{
			"bufferView":3,
			"componentType":5123,
			"count":234,
			"type":"SCALAR"
		},
		{
			"bufferView":4,
			"componentType":5126,
			"count":100,
			"max":[
				0.45000001788139343,
				0.4750000238418579,
				0.351250022649765
			],
			"min":[
				-0.45000001788139343,
				0.04999999701976776,
				-0.2970000207424164
			],
			"type":"VEC3"
		},
		{
			"bufferView":5,
			"componentType":5126,
			"count":100,
			"type":"VEC3"
		},
		{
			"bufferView":6,
			"componentType":5126,
			"count":100,
			"type":"VEC2"
		},
		{
			"bufferView":7,
			"componentType":5123,
			"count":240,
			"type":"SCALAR"
		},
		{
			"bufferView":8,
			"componentType":5126,
			"count":160,
			"max":[
				0.25751161575317383,
				0.07350008934736252,
				0.25751161575317383
			],
			"min":[
				-0.25751161575317383,
				0.04999999701976776,
				-0.25751161575317383
			],
			"type":"VEC3"
		},
		{
			"bufferView":9,
			"componentType":5126,
			"count":160,
			"type":"VEC3"
		},
		{
			"bufferView":10,
			"componentType":5126,
			"count":160,
			"type":"VEC2"
		},
		{
			"bufferView":11,
			"componentType":5123,
			"count":282,
			"type":"SCALAR"
		}
	],
	"bufferViews":[
		{
			"buffer":0,
			"byteLength":1464,
			"byteOffset":0,
			"target":34962
		},
		{
			"buffer":0,
			"byteLength":1464,
			"byteOffset":1464,
			"target":34962
		},
		{
			"buffer":0,
			"byteLength":976,
			"byteOffset":2928,
			"target":34962
		},
		{
			"buffer":0,
			"byteLength":468,
			"byteOffset":3904,
			"target":34963
		},
		{
			"buffer":0,
			"byteLength":1200,
			"byteOffset":4372,
			"target":34962
		},
		{
			"buffer":0,
			"byteLength":1200,
			"byteOffset":5572,
			"target":34962
		},
		{
			"buffer":0,
			"byteLength":800,
			"byteOffset":6772,
			"target":34962
		},
		{
			"buffer":0,
			"byteLength":480,
			"byteOffset":7572,
			"target":34963
		},
		{
			"buffer":0,
			"byteLength":1920,
			"byteOffset":8052,
			"target":34962
		},
		{
			"buffer":0,
			"byteLength":1920,
			"byteOffset":9972,
			"target":34962
		},
		{
			"buffer":0,
			"byteLength":1280,
			"byteOffset":11892,
			"target":34962
		},
		{
			"buffer":0,
			"byteLength":564,
			"byteOffset":13172,
			"target":34963
		}
	],
	"samplers":[
		{
			"magFilter":9729,
			"minFilter":9987
		}
	],
	"buffers":[
		{
			"byteLength":13736,
			"uri":"microwave.bin"
		}
	]
}
